<?xml version="1.0" encoding="UTF-8" standalone="no"?><!DOCTYPE svg PUBLIC "-//W3C//DTD SVG 1.1//EN" "http://www.w3.org/Graphics/SVG/1.1/DTD/svg11.dtd"><svg width="100%" height="100%" viewBox="0 0 75 71" version="1.1" xmlns="http://www.w3.org/2000/svg" xmlns:xlink="http://www.w3.org/1999/xlink" xml:space="preserve" xmlns:serif="http://www.serif.com/" style="fill-rule:evenodd;clip-rule:evenodd;stroke-linejoin:round;stroke-miterlimit:2;"><g id="facebook"><path d="M26.278,69.235c-14.726,-4.161 -25.454,-17.747 -25.454,-33.818c-0,-19.547 15.869,-35.417 35.416,-35.417c19.547,0 35.417,15.87 35.417,35.417c-0,18.88 -14.806,34.33 -33.441,35.217l0,-26.458c0,-0 6.081,0.047 8.322,0.064c0.216,0.002 0.424,-0.083 0.577,-0.235c0.153,-0.152 0.24,-0.359 0.24,-0.575c-0,-1.9 -0,-6.59 -0,-8.388c-0,-0.189 -0.076,-0.37 -0.211,-0.503c-0.135,-0.132 -0.317,-0.205 -0.506,-0.202c-2.154,0.033 -8.422,0.13 -8.422,0.13l0,-10.617c0,-1.27 0.165,-2.302 0.494,-3.096c0.329,-0.793 0.782,-1.375 1.358,-1.746c0.577,-0.37 1.277,-0.555 2.1,-0.555c0.713,-0 1.386,0.159 2.017,0.476c0.449,0.226 0.877,0.546 1.285,0.959c0.104,0.106 0.247,0.163 0.394,0.161l0.063,-0.004c0.168,-0.023 0.317,-0.122 0.401,-0.27c0.992,-1.732 3.642,-6.381 4.427,-7.758c0.132,-0.23 0.086,-0.522 -0.112,-0.699c-0.505,-0.439 -1.134,-0.905 -1.889,-1.397c-0.933,-0.608 -2.072,-1.137 -3.417,-1.587c-1.302,-0.436 -2.849,-0.66 -4.642,-0.674l-0.174,-0.001c-3.128,0 -5.749,0.529 -7.862,1.587c-2.113,1.059 -3.705,2.567 -4.775,4.524c-1.07,1.958 -1.606,4.312 -1.606,7.064l0,13.492c0,-0 -2.56,-0 -3.931,-0c-0.466,-0 -0.844,0.377 -0.844,0.843c0,1.965 0,6.809 0,8.491c0,0.155 0.062,0.304 0.172,0.414c0.11,0.11 0.259,0.172 0.415,0.172l4.188,0l0,24.989Z" style="fill:#001f1c;"/><path d="M26.278,69.235l0,-24.989l-4.188,0c-0.156,0 -0.305,-0.062 -0.415,-0.172c-0.11,-0.11 -0.172,-0.259 -0.172,-0.414c0,-1.682 0,-6.526 0,-8.491c0,-0.466 0.378,-0.843 0.844,-0.843c1.371,-0 3.931,-0 3.931,-0l0,-13.492c0,-2.752 0.536,-5.106 1.606,-7.064c1.07,-1.957 2.662,-3.465 4.775,-4.524c2.113,-1.058 4.734,-1.587 7.862,-1.587l0.174,0.001c1.793,0.014 3.34,0.238 4.642,0.674c1.345,0.45 2.484,0.979 3.417,1.587c0.755,0.492 1.384,0.958 1.889,1.397c0.198,0.177 0.244,0.469 0.112,0.699c-0.785,1.377 -3.435,6.026 -4.427,7.758c-0.084,0.148 -0.233,0.247 -0.401,0.27l-0.063,0.004c-0.147,0.002 -0.29,-0.055 -0.394,-0.161c-0.408,-0.413 -0.836,-0.733 -1.285,-0.959c-0.631,-0.317 -1.304,-0.476 -2.017,-0.476c-0.823,-0 -1.523,0.185 -2.1,0.555c-0.576,0.371 -1.029,0.953 -1.358,1.746c-0.329,0.794 -0.494,1.826 -0.494,3.096l0,10.617c0,-0 6.268,-0.097 8.422,-0.13c0.189,-0.003 0.371,0.07 0.506,0.202c0.135,0.133 0.211,0.314 0.211,0.503c-0,1.798 -0,6.488 -0,8.388c-0,0.216 -0.087,0.423 -0.24,0.575c-0.153,0.152 -0.361,0.237 -0.577,0.235c-2.241,-0.017 -8.322,-0.064 -8.322,-0.064l0,26.458l-1.976,0.199c-2.834,0 -5.59,-0.333 -8.207,-1.051c-0.592,-0.163 -1.177,-0.345 -1.755,-0.547Z" style="fill:#fff;fill-opacity:0;"/></g></svg>