<?xml version="1.0" encoding="UTF-8" standalone="no"?><!DOCTYPE svg PUBLIC "-//W3C//DTD SVG 1.1//EN" "http://www.w3.org/Graphics/SVG/1.1/DTD/svg11.dtd"><svg width="100%" height="100%" viewBox="0 0 75 75" version="1.1" xmlns="http://www.w3.org/2000/svg" xmlns:xlink="http://www.w3.org/1999/xlink" xml:space="preserve" xmlns:serif="http://www.serif.com/" style="fill-rule:evenodd;clip-rule:evenodd;stroke-linejoin:round;stroke-miterlimit:2;"><g id="instagram"><path d="M71.657,22.649c-0,-11.728 -9.522,-21.25 -21.25,-21.25l-28.333,0c-11.729,0 -21.25,9.522 -21.25,21.25l-0,28.333c-0,11.729 9.521,21.25 21.25,21.25l28.333,0c11.728,0 21.25,-9.521 21.25,-21.25l-0,-28.333Zm-7.083,0l-0,28.333c-0,7.819 -6.348,14.167 -14.167,14.167l-28.333,0c-7.819,0 -14.167,-6.348 -14.167,-14.167l-0,-28.333c-0,-7.819 6.348,-14.167 14.167,-14.167l28.333,0c7.819,0 14.167,6.348 14.167,14.167Z" style="fill:#001f1c;"/><path d="M36.24,19.392c9.29,0 16.833,7.542 16.833,16.832c-0,9.29 -7.543,16.833 -16.833,16.833c-9.29,-0 -16.832,-7.543 -16.832,-16.833c-0,-9.29 7.542,-16.832 16.832,-16.832Zm0,7.5c5.151,0 9.333,4.182 9.333,9.332c-0,5.151 -4.182,9.333 -9.333,9.333c-5.15,-0 -9.332,-4.182 -9.332,-9.333c-0,-5.15 4.182,-9.332 9.332,-9.332Z" style="fill:#001f1c;"/><path d="M55.638,12.148c-2.678,0 -4.852,2.174 -4.852,4.852c0,2.679 2.174,4.853 4.852,4.853c2.679,-0 4.853,-2.174 4.853,-4.853c-0,-2.678 -2.174,-4.852 -4.853,-4.852Zm0,4.167c0.379,-0 0.686,0.307 0.686,0.685c0,0.379 -0.307,0.686 -0.686,0.686c-0.378,0 -0.685,-0.307 -0.685,-0.686c-0,-0.378 0.307,-0.685 0.685,-0.685Z" style="fill:#001f1c;"/><circle cx="55.638" cy="17" r="4.852" style="fill:#001f1c;"/></g></svg>