<?xml version="1.0" encoding="UTF-8" standalone="no"?><!DOCTYPE svg PUBLIC "-//W3C//DTD SVG 1.1//EN" "http://www.w3.org/Graphics/SVG/1.1/DTD/svg11.dtd"><svg width="100%" height="100%" viewBox="0 0 55 59" version="1.1" xmlns="http://www.w3.org/2000/svg" xmlns:xlink="http://www.w3.org/1999/xlink" xml:space="preserve" xmlns:serif="http://www.serif.com/" style="fill-rule:evenodd;clip-rule:evenodd;stroke-linejoin:round;stroke-miterlimit:2;"><g id="instagram"><path d="M53.519,18.123c-0,-8.819 -7.16,-15.979 -15.979,-15.979l-21.306,0c-8.819,0 -15.979,7.16 -15.979,15.979l0,21.306c0,8.819 7.16,15.979 15.979,15.979l21.306,-0c8.819,-0 15.979,-7.16 15.979,-15.979l-0,-21.306Zm-4.167,1.667c0,-7.439 -6.04,-13.479 -13.479,-13.479l-17.972,-0c-7.439,-0 -13.479,6.04 -13.479,13.479l0,17.972c0,7.439 6.04,13.479 13.479,13.479l17.972,0c7.439,0 13.479,-6.04 13.479,-13.479l0,-17.972Z" style="fill:url(#_Linear1);"/><path d="M26.887,15.674c6.986,0 12.657,5.672 12.657,12.657c0,6.986 -5.671,12.658 -12.657,12.658c-6.986,-0 -12.657,-5.672 -12.657,-12.658c-0,-6.985 5.671,-12.657 12.657,-12.657Zm0,4.669c4.409,0 7.988,3.579 7.988,7.988c0,4.409 -3.579,7.989 -7.988,7.989c-4.409,-0 -7.988,-3.58 -7.988,-7.989c-0,-4.409 3.579,-7.988 7.988,-7.988Z" style="fill:url(#_Linear2);"/><circle cx="41.474" cy="13.876" r="3.649" style="fill:url(#_Linear3);"/></g><defs><linearGradient id="_Linear1" x1="0" y1="0" x2="1" y2="0" gradientUnits="userSpaceOnUse" gradientTransform="matrix(-51.828,52.4215,-52.4215,-51.828,52.0833,2.98628)"><stop offset="0" style="stop-color:#fc334e;stop-opacity:1"/><stop offset="0.49" style="stop-color:#fd3d47;stop-opacity:1"/><stop offset="1" style="stop-color:#ff5833;stop-opacity:1"/></linearGradient><linearGradient id="_Linear2" x1="0" y1="0" x2="1" y2="0" gradientUnits="userSpaceOnUse" gradientTransform="matrix(-51.828,52.4215,-52.4215,-51.828,52.0833,2.98628)"><stop offset="0" style="stop-color:#fc334e;stop-opacity:1"/><stop offset="0.49" style="stop-color:#fd3d47;stop-opacity:1"/><stop offset="1" style="stop-color:#ff5833;stop-opacity:1"/></linearGradient><linearGradient id="_Linear3" x1="0" y1="0" x2="1" y2="0" gradientUnits="userSpaceOnUse" gradientTransform="matrix(-51.828,52.4215,-52.4215,-51.828,52.0833,2.98628)"><stop offset="0" style="stop-color:#fc334e;stop-opacity:1"/><stop offset="0.49" style="stop-color:#fd3d47;stop-opacity:1"/><stop offset="1" style="stop-color:#ff5833;stop-opacity:1"/></linearGradient></defs></svg>