<?xml version="1.0" encoding="UTF-8" standalone="no"?><!DOCTYPE svg PUBLIC "-//W3C//DTD SVG 1.1//EN" "http://www.w3.org/Graphics/SVG/1.1/DTD/svg11.dtd">
<svg width="100%" height="100%" viewBox="0 0 367 296" version="1.1" xmlns="http://www.w3.org/2000/svg" xmlns:xlink="http://www.w3.org/1999/xlink" xml:space="preserve" xmlns:serif="http://www.serif.com/">
<path d="M278.463,52.229c-25.24,-25.27 -58.808,-39.192 -94.568,-39.207c-73.688,-0 -133.66,59.97 -133.69,133.678c-0.01,23.562 6.146,46.563 17.845,66.836l-18.966,69.276l70.871,-18.591c19.528,10.652 41.512,16.265 63.886,16.272l0.055,-0c73.681,-0 133.659,-59.975 133.687,-133.686c0.014,-35.723 -13.878,-69.31 -39.12,-94.578Zm-94.568,205.687l-0.046,-0c-19.938,-0.009 -39.492,-5.367 -56.555,-15.489l-4.056,-2.409l-42.056,11.033l11.226,-41.004l-2.643,-4.204c-11.123,-17.692 -16.997,-38.14 -16.987,-59.135c0.023,-61.264 49.871,-111.107 111.161,-111.107c29.68,0.01 57.579,11.583 78.558,32.586c20.978,21.003 32.525,48.921 32.515,78.612c-0.027,61.269 -49.871,111.117 -111.117,111.117Zm60.95,-83.221c-3.34,-1.673 -19.764,-9.752 -22.827,-10.868c-3.059,-1.115 -5.289,-1.67 -7.513,1.673c-2.228,3.342 -8.629,10.868 -10.578,13.096c-1.95,2.229 -3.896,2.509 -7.238,0.836c-3.341,-1.671 -14.103,-5.2 -26.863,-16.58c-9.93,-8.857 -16.633,-19.796 -18.583,-23.139c-1.946,-3.346 -0.016,-4.98 1.466,-6.817c3.616,-4.491 7.237,-9.198 8.35,-11.426c1.115,-2.23 0.556,-4.181 -0.28,-5.853c-0.833,-1.671 -7.514,-18.113 -10.297,-24.803c-2.713,-6.511 -5.465,-5.632 -7.517,-5.734c-1.946,-0.097 -4.174,-0.117 -6.402,-0.117c-2.226,-0 -5.846,0.835 -8.908,4.181c-3.062,3.344 -11.69,11.424 -11.69,27.866c-0,16.442 11.97,32.326 13.639,34.556c1.67,2.229 23.556,35.969 57.064,50.437c7.97,3.445 14.191,5.498 19.044,7.038c8.002,2.542 15.282,2.183 21.039,1.324c6.419,-0.96 19.762,-8.082 22.548,-15.884c2.783,-7.803 2.783,-14.491 1.946,-15.885c-0.833,-1.393 -3.061,-2.228 -6.4,-3.901Z" style="fill:#00972b;"/>
</svg>