<?xml version="1.0" encoding="UTF-8" standalone="no"?><!DOCTYPE svg PUBLIC "-//W3C//DTD SVG 1.1//EN" "http://www.w3.org/Graphics/SVG/1.1/DTD/svg11.dtd"><svg width="100%" height="100%" viewBox="0 0 88 71" version="1.1" xmlns="http://www.w3.org/2000/svg" xmlns:xlink="http://www.w3.org/1999/xlink" xml:space="preserve" xmlns:serif="http://www.serif.com/" style="fill-rule:evenodd;clip-rule:evenodd;stroke-linejoin:round;stroke-miterlimit:2;"><path d="M75.832,1.652l-67.406,-0c-4.634,-0 -8.426,3.757 -8.426,8.349l-0,50.096c-0,4.592 3.792,8.35 8.426,8.35l67.406,-0c4.634,-0 8.425,-3.758 8.425,-8.35l0,-50.096c0,-4.592 -3.791,-8.349 -8.425,-8.349Zm-0,58.445l-8.426,0l-0,-36.737l-25.277,15.864l-25.278,-15.864l0,36.737l-8.425,0l-0,-50.096l5.055,0l28.648,17.534l28.647,-17.534l5.056,0l-0,50.096Z" style="fill:#fff;"/></svg>