<?xml version="1.0" encoding="UTF-8" standalone="no"?><!DOCTYPE svg PUBLIC "-//W3C//DTD SVG 1.1//EN" "http://www.w3.org/Graphics/SVG/1.1/DTD/svg11.dtd"><svg width="100%" height="100%" viewBox="0 0 55 59" version="1.1" xmlns="http://www.w3.org/2000/svg" xmlns:xlink="http://www.w3.org/1999/xlink" xml:space="preserve" xmlns:serif="http://www.serif.com/" style="fill-rule:evenodd;clip-rule:evenodd;stroke-linejoin:round;stroke-miterlimit:2;"><g id="facebook"><path d="M19.396,55.043c-11.074,-3.129 -19.141,-13.344 -19.141,-25.43c0,-14.698 11.934,-26.631 26.632,-26.631c14.699,-0 26.632,11.933 26.632,26.631c-0,14.198 -11.133,25.815 -25.146,26.482l-0,-19.895c-0,-0 4.573,0.035 6.258,0.048c0.162,0.001 0.318,-0.062 0.434,-0.177c0.115,-0.114 0.18,-0.27 0.18,-0.432c-0,-1.428 -0,-4.956 -0,-6.307c-0,-0.142 -0.057,-0.278 -0.159,-0.378c-0.101,-0.1 -0.238,-0.155 -0.38,-0.153c-1.62,0.025 -6.333,0.098 -6.333,0.098l-0,-7.983c-0,-0.955 0.124,-1.731 0.371,-2.328c0.248,-0.597 0.588,-1.034 1.022,-1.313c0.433,-0.278 0.959,-0.418 1.578,-0.418c0.537,0 1.043,0.12 1.517,0.358c0.338,0.17 0.66,0.411 0.966,0.722c0.079,0.079 0.186,0.122 0.297,0.121l0.047,-0.004c0.127,-0.016 0.238,-0.091 0.301,-0.202c0.746,-1.303 2.739,-4.799 3.329,-5.834c0.1,-0.173 0.065,-0.392 -0.084,-0.526c-0.379,-0.329 -0.853,-0.68 -1.42,-1.05c-0.702,-0.458 -1.558,-0.855 -2.569,-1.194c-0.98,-0.327 -2.143,-0.496 -3.491,-0.506l-0.131,-0.001c-2.352,0 -4.323,0.398 -5.912,1.194c-1.589,0.795 -2.786,1.929 -3.59,3.401c-0.805,1.472 -1.208,3.243 -1.208,5.312l0,10.145c0,0 -1.925,0 -2.956,0c-0.35,0 -0.634,0.284 -0.634,0.634c-0,1.478 -0,5.12 -0,6.385c-0,0.117 0.046,0.229 0.129,0.312c0.083,0.082 0.195,0.129 0.312,0.129l3.149,-0l0,18.79Z" style="fill:#07c;"/><path d="M19.396,55.043l0,-18.79l-3.149,-0c-0.117,-0 -0.229,-0.047 -0.312,-0.129c-0.083,-0.083 -0.129,-0.195 -0.129,-0.312c-0,-1.265 -0,-4.907 -0,-6.385c-0,-0.35 0.284,-0.634 0.634,-0.634c1.031,0 2.956,0 2.956,0l0,-10.145c0,-2.069 0.403,-3.84 1.208,-5.312c0.804,-1.472 2.001,-2.606 3.59,-3.401c1.589,-0.796 3.56,-1.194 5.912,-1.194l0.131,0.001c1.348,0.01 2.511,0.179 3.491,0.506c1.011,0.339 1.867,0.736 2.569,1.194c0.567,0.37 1.041,0.721 1.42,1.05c0.149,0.134 0.184,0.353 0.084,0.526c-0.59,1.035 -2.583,4.531 -3.329,5.834c-0.063,0.111 -0.174,0.186 -0.301,0.202l-0.047,0.004c-0.111,0.001 -0.218,-0.042 -0.297,-0.121c-0.306,-0.311 -0.628,-0.552 -0.966,-0.722c-0.474,-0.238 -0.98,-0.358 -1.517,-0.358c-0.619,0 -1.145,0.14 -1.578,0.418c-0.434,0.279 -0.774,0.716 -1.022,1.313c-0.247,0.597 -0.371,1.373 -0.371,2.328l-0,7.983c-0,0 4.713,-0.073 6.333,-0.098c0.142,-0.002 0.279,0.053 0.38,0.153c0.102,0.1 0.159,0.236 0.159,0.378c-0,1.351 -0,4.879 -0,6.307c-0,0.162 -0.065,0.318 -0.18,0.432c-0.116,0.115 -0.272,0.178 -0.434,0.177c-1.685,-0.013 -6.258,-0.048 -6.258,-0.048l-0,19.895l-1.486,0.15c-2.131,0 -4.204,-0.251 -6.171,-0.79c-0.446,-0.123 -0.886,-0.26 -1.32,-0.412Z" style="fill:#fff;fill-opacity:0;"/></g></svg>